<svg width="758" height="219" viewBox="0 0 758 219" fill="none" xmlns="http://www.w3.org/2000/svg">
<path d="M91.65 216.758C87.54 218.748 85.77 218.828 48.43 218.828C11.58 218.818 9.33 218.718 6.3 216.868C2.97 214.838 0 210.248 0 207.128C0 206.138 1.56001 200.828 3.46001 195.328C10.36 175.398 50 50.7876 50 49.0176C50 48.5076 46.96 47.0876 43.25 45.8576C35.37 43.2476 32 41.3176 32 39.4176C32 38.6676 42.01 30.5076 54.25 21.2676C66.49 12.0376 77.8 3.41762 79.39 2.10763C81.17 0.637625 83.27 -0.162362 84.86 0.0276384C85.28 0.0776384 85.61 0.0676128 85.93 0.157613C87.79 0.707613 88.64 4.70763 98.06 44.2676L98.16 44.6876C101.74 59.7276 103.17 65.7376 101.27 67.0976C100 68.0176 97.25 66.8676 92.68 64.9676L92.49 64.8876C88.26 63.1276 84.58 61.9176 84.31 62.1876C84.03 62.4576 81.2 71.1576 78.01 81.5076C74.82 91.8576 69.49 108.878 66.16 119.328C60.05 138.528 47.94 176.428 46.6 180.578L45.87 182.828H70.84L73.87 173.578C75.53 168.488 79.45 155.998 82.56 145.828C85.68 135.658 88.87 125.248 89.66 122.698C92.33 114.008 90.54 114.398 130.35 113.828C164.37 113.348 165.66 113.258 170.5 111.028C180.03 106.648 185.74 99.2876 187.96 88.5476C190.59 75.8176 184.06 62.5576 172.51 57.1776C167.69 54.9376 166.56 54.8476 142.94 54.8376C124.82 54.8276 117.96 54.4976 116.79 53.5776C115.85 52.8376 113.66 46.0776 111.46 37.0976C108.39 24.6276 107.95 21.5976 108.98 20.3476C110.06 19.0476 114.32 18.8376 137.87 18.8576C170.62 18.9076 177.68 19.8476 189.5 25.7376C199.65 30.7976 206.57 36.8976 212.92 46.4076C218.54 54.7976 221.59 63.3976 223.22 75.4076C224.13 82.1076 224.03 85.0376 222.63 92.6876C220.41 104.828 217.86 111.378 211.84 120.378C203.16 133.348 188.95 143.338 173.54 147.298C168.99 148.468 161.84 148.828 143.26 148.828C124.67 148.828 118.85 149.118 118.56 150.078C112.62 169.668 99.34 209.158 97.88 211.508C96.81 213.258 94 215.618 91.65 216.758Z" fill="#01C07A"/>
<path d="M710.22 92.9675C724.593 92.9675 736.033 97.6609 744.54 107.048C753.193 116.288 757.52 129.048 757.52 145.328V217.048H720.12V150.388C720.12 142.174 717.993 135.794 713.74 131.248C709.487 126.701 703.767 124.428 696.58 124.428C689.393 124.428 683.673 126.701 679.42 131.248C675.167 135.794 673.04 142.174 673.04 150.388V217.048H635.42V94.2875H673.04V110.568C676.853 105.141 681.987 100.888 688.44 97.8075C694.893 94.5809 702.153 92.9675 710.22 92.9675Z" fill="#182731"/>
<path d="M598.258 81.5276C591.658 81.5276 586.232 79.621 581.978 75.8076C577.872 71.8476 575.818 67.0076 575.818 61.2877C575.818 55.421 577.872 50.581 581.978 46.7676C586.232 42.8076 591.658 40.8276 598.258 40.8276C604.712 40.8276 609.992 42.8076 614.098 46.7676C618.352 50.581 620.478 55.421 620.478 61.2877C620.478 67.0076 618.352 71.8476 614.098 75.8076C609.992 79.621 604.712 81.5276 598.258 81.5276ZM616.958 94.2876V217.048H579.338V94.2876H616.958Z" fill="#182731"/>
<path d="M431.342 155.448C431.342 142.834 433.688 131.761 438.382 122.228C443.222 112.694 449.748 105.361 457.962 100.228C466.175 95.0943 475.342 92.5276 485.462 92.5276C494.115 92.5276 501.668 94.2876 508.122 97.8076C514.722 101.328 519.782 105.948 523.302 111.668V94.2876H560.922V217.048H523.302V199.668C519.635 205.388 514.502 210.008 507.902 213.528C501.448 217.048 493.895 218.808 485.242 218.808C475.268 218.808 466.175 216.241 457.962 211.108C449.748 205.828 443.222 198.421 438.382 188.888C433.688 179.208 431.342 168.061 431.342 155.448ZM523.302 155.668C523.302 146.281 520.662 138.874 515.382 133.448C510.248 128.021 503.942 125.308 496.462 125.308C488.982 125.308 482.602 128.021 477.322 133.448C472.188 138.728 469.622 146.061 469.622 155.448C469.622 164.834 472.188 172.314 477.322 177.888C482.602 183.314 488.982 186.028 496.462 186.028C503.942 186.028 510.248 183.314 515.382 177.888C520.662 172.461 523.302 165.054 523.302 155.668Z" fill="#182731"/>
<path d="M426.667 185.148V217.048H407.527C393.887 217.048 383.253 213.748 375.627 207.148C368 200.401 364.187 189.474 364.187 174.368V125.528H349.227V94.2877H364.187V64.3677H401.807V94.2877H426.447V125.528H401.807V174.808C401.807 178.474 402.687 181.114 404.447 182.728C406.207 184.341 409.14 185.148 413.247 185.148H426.667Z" fill="#182731"/>
<path d="M347.2 153.688C347.2 157.208 346.98 160.874 346.54 164.688H261.4C261.987 172.314 264.407 178.181 268.66 182.288C273.06 186.248 278.413 188.228 284.72 188.228C294.107 188.228 300.633 184.268 304.3 176.348H344.34C342.287 184.414 338.547 191.674 333.12 198.128C327.84 204.581 321.167 209.641 313.1 213.308C305.033 216.974 296.013 218.808 286.04 218.808C274.013 218.808 263.307 216.241 253.92 211.108C244.533 205.974 237.2 198.641 231.92 189.108C226.64 179.574 224 168.428 224 155.668C224 142.908 226.567 131.761 231.7 122.228C236.98 112.694 244.313 105.361 253.7 100.228C263.087 95.0943 273.867 92.5276 286.04 92.5276C297.92 92.5276 308.48 95.0209 317.72 100.008C326.96 104.994 334.147 112.108 339.28 121.348C344.56 130.588 347.2 141.368 347.2 153.688ZM308.7 143.788C308.7 137.334 306.5 132.201 302.1 128.388C297.7 124.574 292.2 122.668 285.6 122.668C279.293 122.668 273.94 124.501 269.54 128.168C265.287 131.834 262.647 137.041 261.62 143.788H308.7Z" fill="#182731"/>
</svg>
