<?xml version="1.0" encoding="UTF-8"?>
<svg id="Layer_1" xmlns="http://www.w3.org/2000/svg" viewBox="0 0 1080 1080">
  <defs>
    <style>
      .cls-1 {
        fill: #fff;
      }
    </style>
  </defs>
  <path class="cls-1" d="M451.32,1009.94c-17.99,8.71-25.74,9.06-189.21,9.06-161.32-.04-171.17-.48-184.44-8.58-14.58-8.89-27.58-28.98-27.58-42.64,0-4.33,6.83-27.58,15.15-51.66,30.21-87.25,203.75-632.78,203.75-640.53,0-2.23-13.31-8.45-29.55-13.83-34.5-11.43-49.25-19.88-49.25-28.19,0-3.28,43.82-39.01,97.41-79.46,53.59-40.41,103.1-78.14,110.06-83.88,7.79-6.44,16.99-9.94,23.95-9.11,1.84.22,3.28.18,4.68.57,8.14,2.41,11.86,19.92,53.1,193.11l.44,1.84c15.67,65.84,21.93,92.15,13.62,98.11-5.56,4.03-17.6-1.01-37.61-9.32l-.83-.35c-18.52-7.71-34.63-13-35.81-11.82-1.23,1.18-13.62,39.27-27.58,84.58-13.97,45.31-37.3,119.82-51.88,165.57-26.75,84.06-79.76,249.98-85.63,268.14l-3.2,9.85h109.32l13.26-40.5c7.27-22.28,24.43-76.96,38.04-121.49,13.66-44.52,27.62-90.1,31.08-101.26,11.69-38.04,3.85-36.34,178.14-38.83,148.94-2.1,154.58-2.5,175.77-12.26,41.72-19.18,66.72-51.4,76.44-98.42,11.51-55.73-17.07-113.78-67.64-137.33-21.1-9.81-26.05-10.2-129.45-10.24-79.33-.04-109.36-1.49-114.48-5.52-4.12-3.24-13.7-32.83-23.33-72.15-13.44-54.59-15.37-67.86-10.86-73.33,4.73-5.69,23.38-6.61,126.48-6.52,143.38.22,174.28,4.33,226.03,30.12,44.44,22.15,74.73,48.86,102.53,90.49,24.6,36.73,37.96,74.38,45.09,126.96,3.98,29.33,3.55,42.16-2.58,75.65-9.72,53.15-20.88,81.82-47.24,121.22-38,56.78-100.21,100.52-167.67,117.85-19.92,5.12-51.22,6.7-132.56,6.7s-106.86,1.27-108.13,5.47c-26,85.76-84.14,258.64-90.53,268.93-4.68,7.66-16.99,17.99-27.27,22.98Z"/>
</svg>